
            <svg xmlns="http://www.w3.org/2000/svg">
                <filter id="grayscale">
                    <feColorMatrix type="saturate" values="0"/>
                </filter>
                <g filter="url(#grayscale)">
                    <svg xmlns="http://www.w3.org/2000/svg" viewBox="42.733000000000004 174.879 435.47700488281254 212.1656987646459"> <svg xmlns="http://www.w3.org/2000/svg" id="Layer_1" dataName="Layer 1" viewBox="251.19000244140625 241.75999450683594 457.47998046875 476.6199951171875" height="72.16569876464587" width="69.26771442376999" y="244.879" x="112.733" preserveAspectRatio="xMinYMin" style="overflow: visible;"><polygon class="cls-1" points="708.67 513.04 668.65 519.11 609.67 515.53 607.9 514.84 607.98 514.63 672.68 502.35 674.71 501.96 708.67 513.04" style="fill: #1DBF73; fill-opacity: 1;"></polygon><polygon class="cls-2" points="674.71 501.96 672.68 502.35 672.58 501.77 553.2 493.39 628.98 480.51 674.71 501.96" style="fill: #1DBF73; fill-opacity: 1;"></polygon><polygon class="cls-3" points="674.71 501.96 628.98 480.51 660.06 487.3 674.71 501.96" style="fill: #1DBF73; fill-opacity: 1;"></polygon><polygon class="cls-4" points="672.58 501.77 672.68 502.35 607.98 514.63 607.9 514.84 553.2 493.39 672.58 501.77" style="fill: #62D49F; fill-opacity: 1;"></polygon><polygon class="cls-5" points="668.65 519.11 593.23 595.6 602.88 550.92 668.65 519.11" style="fill: #9ec907;"></polygon><polygon class="cls-6" points="668.65 519.11 602.88 550.92 609.67 515.53 668.65 519.11" style="fill: #1DBF73; fill-opacity: 1;"></polygon><polygon class="cls-7" points="609.67 515.53 602.88 550.92 575.36 539.84 609.67 515.53" style="fill: #1DBF73; fill-opacity: 1;"></polygon><polygon class="cls-8" points="609.67 515.53 575.36 539.84 575.33 539.82 575.35 539.8 553.2 493.39 607.9 514.84 609.67 515.53" style="fill: #1DBF73; fill-opacity: 1;"></polygon><polygon class="cls-9" points="602.88 550.92 593.23 595.6 569.11 588.62 602.88 550.92" style="fill: #62D49F; fill-opacity: 1;"></polygon><polygon class="cls-10" points="602.88 550.92 569.11 588.62 575.36 539.84 602.88 550.92" style="fill: #62D49F; fill-opacity: 1;"></polygon><path class="cls-11" d="M593.23,595.6l-79.88,40.75C512,635,498.88,616,498.88,616Z" style="fill: #126F43; fill-opacity: 1;"></path><polygon class="cls-12" points="593.23 595.6 498.88 615.96 569.11 588.62 593.23 595.6" style="fill: #126F43; fill-opacity: 1;"></polygon><polygon class="cls-13" points="575.36 539.84 569.11 588.62 512.82 569.85 575.36 539.84" style="fill: #168A53; fill-opacity: 1;"></polygon><polygon class="cls-14" points="575.36 539.84 512.82 569.85 488.16 551.63 575.36 539.84" style="fill: #168A53; fill-opacity: 1;"></polygon><polygon class="cls-15" points="575.36 539.84 488.16 551.63 433.11 491.24 433.11 491.23 575.33 539.82 575.36 539.84" style="fill: #1DBF73; fill-opacity: 1;"></polygon><path class="cls-16" d="M575.34,539.8v0l-85.75-59.31-25.72-40.75,51.58,27.56C545.93,504.19,574.4,538.67,575.34,539.8Z" style="fill: #9DC70C; fill-opacity: 1;"></path><polygon class="cls-17" points="489.58 480.51 575.33 539.82 433.11 491.23 489.58 480.51" style="fill: #1DBF73; fill-opacity: 1;"></polygon><polygon class="cls-18" points="569.11 588.62 498.88 615.96 452.25 596.66 569.11 588.62" style="fill: #1DBF73; fill-opacity: 1;"></polygon><polygon class="cls-19" points="512.79 569.87 512.82 569.85 569.11 588.62 452.25 596.66 512.77 569.87 512.79 569.87" style="fill: #1DBF73; fill-opacity: 1;"></polygon><polygon class="cls-20" points="466.71 318.25 563.21 474.09 513.89 419.75 466.71 318.25" style="fill: #00bc8b;"></polygon><polygon class="cls-21" points="513.89 419.75 563.21 474.09 540.48 488.54 513.89 419.75" style="fill: #1DBF73; fill-opacity: 1;"></polygon><polygon class="cls-22" points="513.89 419.75 540.48 488.54 458.5 385.92 513.89 419.75" style="fill: #62D49F; fill-opacity: 1;"></polygon><path class="cls-23" d="M515.44,467.32l-51.58-27.56C463.08,437.9,441,378,441,378,443.24,380.21,480.66,425.31,515.44,467.32Z" style="fill: #64B568; fill-opacity: 1;"></path><polygon class="cls-24" points="466.71 318.25 513.89 419.75 458.5 385.92 466.71 318.25" style="fill: #126F43; fill-opacity: 1;"></polygon><path class="cls-25" d="M513.35,636.35l-98.1,10.71L498.88,616S512,635,513.35,636.35Z" style="fill: #168A53; fill-opacity: 1;"></path><path class="cls-26" d="M391.61,573c-5.94-6-54-55.15-52.49-55.15Z" style="fill: #126F43; fill-opacity: 1;"></path><path class="cls-27" d="M488.17,551.64,450,557,339.12,517.87C340.73,517.87,488.17,551.64,488.17,551.64Z" style="fill: #62D49F; fill-opacity: 1;"></path><polygon class="cls-28" points="512.78 569.88 392.2 573.63 450.04 557.03 512.78 569.88" style="fill: #168A53; fill-opacity: 1;"></polygon><polygon class="cls-26" points="512.83 569.86 512.8 569.88 512.78 569.88 488.17 551.64 512.83 569.86" style="fill: #126F43; fill-opacity: 1;"></polygon><polygon class="cls-29" points="512.77 569.87 452.25 596.66 405.6 583.8 512.77 569.87" style="fill: #1DBF73; fill-opacity: 1;"></polygon><polygon class="cls-30" points="498.88 615.96 415.25 647.06 452.25 596.66 498.88 615.96" style="fill: #168A53; fill-opacity: 1;"></polygon><polygon class="cls-31" points="463.86 439.76 489.58 480.51 422.39 448.34 463.86 439.76" style="fill: #64B568; fill-opacity: 1;"></polygon><polygon class="cls-32" points="489.58 480.51 433.11 491.23 422.39 448.34 489.58 480.51" style="fill: #168A53; fill-opacity: 1;"></polygon><polygon class="cls-33" points="433.11 491.24 488.16 551.63 382.02 495.35 433.08 491.23 433.1 491.23 433.11 491.24" style="fill: #126F43; fill-opacity: 1;"></polygon><polygon class="cls-34" points="488.16 551.63 325.9 494.1 382.02 495.35 488.16 551.63" style="fill: #62D49F; fill-opacity: 1;"></polygon><polygon class="cls-35" points="463.86 439.76 422.39 448.34 378.79 399.73 463.86 439.76" style="fill: #168A53; fill-opacity: 1;"></polygon><path class="cls-36" d="M463.86,439.76l-85.07-40c0-3.56-7.86-55.74-7.86-55.74v0C372.36,345.44,463.15,437.64,463.86,439.76Z" style="fill: #1DBF73; fill-opacity: 1;"></path><polygon class="cls-37" points="452.25 596.66 415.25 647.06 365.93 651.88 452.25 596.66" style="fill: #168A53; fill-opacity: 1;"></polygon><polygon class="cls-38" points="452.25 596.66 365.93 651.88 405.6 583.8 452.25 596.66" style="fill: #168A53; fill-opacity: 1;"></polygon><path class="cls-39" d="M441,378s22.11,59.95,22.89,61.81c-.71-2.12-91.5-94.32-92.92-95.75Z" style="fill: #9DC70C; fill-opacity: 1;"></path><path class="cls-40" d="M441,378l-70-33.94v0L275.85,241.76S436.69,373.65,441,378Z" style="fill: #64B568; fill-opacity: 1;"></path><polygon class="cls-41" points="422.39 448.34 433.11 491.23 433.1 491.23 433.08 491.23 299.45 397.6 422.39 448.34" style="fill: #168A53; fill-opacity: 1;"></polygon><polygon class="cls-42" points="433.08 491.23 382.02 495.35 308.74 420.47 433.08 491.23" style="fill: #9DC70C; fill-opacity: 1;"></polygon><polygon class="cls-43" points="378.79 399.73 422.39 448.34 299.45 397.6 378.79 399.73" style="fill: #1DBF73; fill-opacity: 1;"></polygon><polygon class="cls-44" points="415.25 647.06 251.19 718.38 251.24 718.32 365.93 651.88 415.25 647.06" style="fill: #126F43; fill-opacity: 1;"></polygon><polygon class="cls-45" points="405.6 583.8 365.93 651.88 251.24 718.32 405.6 583.8" style="fill: #126F43; fill-opacity: 1;"></polygon><polygon class="cls-46" points="308.74 420.47 382.02 495.35 325.9 494.1 308.74 420.47" style="fill: #126F43; fill-opacity: 1;"></polygon><polygon class="cls-47" points="378.79 399.73 299.45 397.6 295.68 372.76 378.79 399.73" style="fill: #126F43; fill-opacity: 1;"></polygon><path class="cls-16" d="M378.79,399.73l-88.6-63.26L370.93,344S378.79,396.17,378.79,399.73Z" style="fill: #9DC70C; fill-opacity: 1;"></path><polygon class="cls-47" points="275.85 241.76 370.93 343.99 290.19 336.47 275.85 241.76" style="fill: #126F43; fill-opacity: 1;"></polygon><polygon class="cls-5" points="450.04 557.03 392.2 573.63 391.61 573.02 390.95 572.35 339.12 517.87 450.04 557.03" style="fill: #9ec907;"></polygon><polygon class="cls-48" points="512.78 569.88 450.04 557.03 488.17 551.64 512.78 569.88" style="fill: #1DBF73; fill-opacity: 1;"></polygon></svg> <svg xmlns="http://www.w3.org/2000/svg" y="287.5" viewBox="3.190000057220459 5.659999847412109 223.6300048828125 28.43000030517578" x="184.58" height="28.43000030517578" width="223.6300048828125" style="overflow: visible;"><g fill="#190C16" fill-opacity="1" style=""><path d="M3.19 33.02Q3.19 33.14 3.65 32.85Q4.10 32.57 4.48 31.79Q4.86 31.01 4.86 29.49L4.86 29.49L4.86 10.41Q4.86 8.89 4.50 8.11Q4.14 7.33 3.69 7.07Q3.23 6.80 3.23 6.88L3.23 6.88L9.27 6.88Q9.27 6.80 8.82 7.07Q8.36 7.33 7.98 8.11Q7.60 8.89 7.60 10.41L7.60 10.41L7.60 29.49Q7.60 31.01 7.98 31.79Q8.36 32.57 8.82 32.83Q9.27 33.10 9.27 33.02L9.27 33.02L3.19 33.02ZM34.20 6.88L39.56 6.88Q39.03 6.99 38.51 7.73Q38 8.47 38 10.34L38 10.34L38 34.09L18.54 11.40L18.54 29.60Q18.54 31.43 19.19 32.17Q19.84 32.91 20.44 33.02L20.44 33.02L15.09 33.02Q15.62 32.91 16.17 32.17Q16.72 31.43 16.72 29.56L16.72 29.56L16.72 10.56Q16.72 9.27 15.85 8.21Q14.97 7.14 13.64 6.88L13.64 6.88L18.35 6.88L36.18 27.66L36.18 10.34Q36.18 7.41 34.20 6.88L34.20 6.88ZM62.51 30.89Q58.94 33.02 52.97 33.02L52.97 33.02L45.49 33.02Q45.49 33.14 45.94 32.81Q46.40 32.49 46.76 31.62Q47.12 30.74 47.12 29.07L47.12 29.07L47.12 10.37Q47.12 8.89 46.76 8.11Q46.40 7.33 45.94 7.07Q45.49 6.80 45.49 6.88L45.49 6.88L52.93 6.88Q58.75 6.88 62.13 8.78L62.13 8.78Q65.13 10.45 66.77 13.30Q68.40 16.15 68.40 19.72L68.40 19.72Q68.40 23.60 66.86 26.43Q65.32 29.26 62.51 30.89L62.51 30.89ZM61.03 10.49Q59.36 9.39 57.46 8.89Q55.56 8.40 52.93 8.40L52.93 8.40L49.86 8.40L49.86 31.50L52.93 31.50Q56.05 31.50 58.05 30.97Q60.04 30.44 61.48 29.34L61.48 29.34Q63.35 27.89 64.35 25.55Q65.36 23.22 65.36 20.10L65.36 20.10Q65.36 16.80 64.20 14.31Q63.04 11.82 61.03 10.49L61.03 10.49ZM73.72 33.02Q73.72 33.14 74.18 32.85Q74.63 32.57 75.01 31.79Q75.39 31.01 75.39 29.49L75.39 29.49L75.39 10.41Q75.39 8.89 75.03 8.11Q74.67 7.33 74.21 7.07Q73.76 6.80 73.76 6.88L73.76 6.88L79.80 6.88Q79.80 6.80 79.34 7.07Q78.89 7.33 78.51 8.11Q78.13 8.89 78.13 10.41L78.13 10.41L78.13 29.49Q78.13 31.01 78.51 31.79Q78.89 32.57 79.34 32.83Q79.80 33.10 79.80 33.02L79.80 33.02L73.72 33.02ZM106.55 30.70Q105.11 31.88 102.79 32.68Q100.47 33.48 98.12 33.48L98.12 33.48Q94.58 33.48 91.54 31.84Q88.50 30.21 86.66 27.13Q84.82 24.05 84.82 19.91L84.82 19.91Q84.82 16.04 86.51 12.96Q88.20 9.88 91.33 8.15Q94.47 6.42 98.65 6.42L98.65 6.42Q103.09 6.42 106.55 8.36L106.55 8.36L106.55 12.58Q105.37 10.49 103.13 9.25Q100.89 8.02 98.34 8.02L98.34 8.02Q95.11 8.02 92.74 9.54Q90.36 11.06 89.11 13.70Q87.86 16.34 87.86 19.61L87.86 19.61Q87.86 23.29 89.28 26.03Q90.71 28.77 93.14 30.23Q95.57 31.69 98.57 31.69L98.57 31.69Q103.40 31.69 106.55 28.88L106.55 28.88L106.55 30.70ZM126.62 22.88L117.15 22.88L114.72 28.92Q114.15 30.32 114.15 31.24L114.15 31.24Q114.15 32.49 115.29 33.02L115.29 33.02L109.86 33.02Q110.24 33.02 110.96 32.26Q111.68 31.50 112.63 29.26L112.63 29.26L122.55 5.66L132.39 29.37Q133.23 31.43 134.01 32.19Q134.79 32.95 135.24 33.02L135.24 33.02L128.93 33.02Q129.88 32.57 129.88 31.62L129.88 31.62Q129.88 30.82 129.28 29.34L129.28 29.34L126.62 22.88ZM117.80 21.32L126.01 21.32L121.87 11.17L117.80 21.32ZM139.08 8.40Q137.41 8.40 136.31 9.04Q135.20 9.69 134.71 10.68L134.71 10.68L135.24 6.88L153.25 6.88L153.79 10.68Q153.29 9.69 152.19 9.04Q151.09 8.40 149.42 8.40L149.42 8.40L145.62 8.40L145.62 29.49Q145.62 31.01 146.00 31.81Q146.38 32.60 146.83 32.87Q147.29 33.14 147.29 33.02L147.29 33.02L141.25 33.02Q141.25 33.14 141.70 32.87Q142.16 32.60 142.52 31.82Q142.88 31.05 142.88 29.49L142.88 29.49L142.88 8.40L139.08 8.40ZM156.56 20.25Q156.56 16.23 158.29 13.07Q160.02 9.92 163.15 8.17Q166.29 6.42 170.39 6.42L170.39 6.42Q173.81 6.42 176.79 7.92Q179.78 9.42 181.58 12.43Q183.39 15.43 183.39 19.65L183.39 19.65Q183.39 23.67 181.66 26.83Q179.93 29.98 176.79 31.73Q173.66 33.48 169.56 33.48L169.56 33.48Q166.14 33.48 163.15 31.98Q160.17 30.48 158.36 27.47Q156.56 24.47 156.56 20.25L156.56 20.25ZM180.35 20.22Q180.35 16.76 178.92 13.96Q177.50 11.17 175.01 9.59Q172.52 8.02 169.40 8.02L169.40 8.02Q166.55 8.02 164.33 9.46Q162.11 10.91 160.85 13.55Q159.60 16.19 159.60 19.68L159.60 19.68Q159.60 23.14 161.02 25.93Q162.45 28.73 164.94 30.30Q167.43 31.88 170.54 31.88L170.54 31.88Q173.39 31.88 175.62 30.44Q177.84 28.99 179.09 26.35Q180.35 23.71 180.35 20.22L180.35 20.22ZM196.08 19.87Q197.83 19.87 199.12 19.06Q200.41 18.24 201.08 16.93Q201.74 15.62 201.74 14.17L201.74 14.17Q201.74 12.69 201.11 11.38Q200.49 10.07 199.20 9.23Q197.90 8.40 196.04 8.40L196.04 8.40L192.81 8.40L192.81 29.53Q192.81 31.05 193.19 31.82Q193.57 32.60 194.03 32.85Q194.48 33.10 194.48 33.02L194.48 33.02L188.44 33.02Q188.44 33.10 188.90 32.83Q189.35 32.57 189.71 31.81Q190.08 31.05 190.08 29.53L190.08 29.53L190.08 10.53Q190.08 8.97 189.71 8.15Q189.35 7.33 188.90 7.05Q188.44 6.76 188.44 6.88L188.44 6.88L195.97 6.88Q198.93 6.88 200.85 7.85Q202.77 8.82 203.62 10.36Q204.48 11.89 204.48 13.72L204.48 13.72Q204.48 15.24 203.76 16.70Q203.03 18.16 201.68 19.25Q200.34 20.33 198.55 20.75L198.55 20.75L197.94 20.86L204.63 29.37Q205.96 30.86 206.83 31.65Q207.71 32.45 208.11 32.72Q208.51 32.98 208.58 33.02L208.58 33.02L204.14 33.02L193.80 19.87L196.08 19.87ZM218.92 33.48Q216.94 33.48 215.12 32.93Q213.29 32.38 211.85 31.39L211.85 31.39L211.85 26.79Q212.84 29.34 214.87 30.65Q216.90 31.96 219.11 31.96L219.11 31.96Q221.31 31.96 222.79 30.49Q224.28 29.03 224.28 26.87L224.28 26.87Q224.28 25.42 223.69 24.40Q223.10 23.37 221.81 22.48Q220.51 21.58 218.16 20.48L218.16 20.48Q214.85 18.96 213.35 17.31Q211.85 15.66 211.85 13.30L211.85 13.30Q211.85 11.29 212.82 9.71Q213.79 8.13 215.44 7.28Q217.09 6.42 219.07 6.42L219.07 6.42Q220.78 6.42 222.41 6.90Q224.05 7.37 225.45 8.25L225.45 8.25L225.45 12.35Q224.54 10.26 222.70 9.10Q220.86 7.94 218.96 7.94L218.96 7.94Q216.79 7.94 215.46 9.35Q214.13 10.75 214.13 12.69L214.13 12.69Q214.13 14.10 214.93 15.11Q215.73 16.11 216.88 16.80Q218.04 17.48 220.13 18.47L220.13 18.47Q222.26 19.49 223.63 20.37Q225.00 21.24 225.91 22.65Q226.82 24.05 226.82 26.07L226.82 26.07Q226.82 28.35 225.74 30.02Q224.66 31.69 222.85 32.59Q221.05 33.48 218.92 33.48L218.92 33.48Z" transform="translate(0, 0)"></path></g></svg> <svg xmlns="http://www.w3.org/2000/svg" y="256.4" viewBox="3.2300000190734863 6.844878196716309 104.98999786376953 26.59511947631836" x="184.5800003051758" height="26.59511947631836" width="104.98999786376953" style="overflow: visible;"><g fill="#190C16" fill-opacity="1" style=""><path d="M19.61 13.95Q19.61 16.15 18.56 17.88Q17.52 19.61 15.58 20.60Q13.64 21.58 11.02 21.58L11.02 21.58Q9.42 21.58 7.60 21.24L7.60 21.24L7.60 29.53Q7.60 31.01 7.98 31.79Q8.36 32.57 8.82 32.83Q9.27 33.10 9.27 33.02L9.27 33.02L3.23 33.02Q3.23 33.10 3.69 32.83Q4.14 32.57 4.50 31.81Q4.86 31.05 4.86 29.53L4.86 29.53L4.86 10.49Q4.86 8.97 4.50 8.17Q4.14 7.37 3.69 7.09Q3.23 6.80 3.23 6.88L3.23 6.88L10.68 6.88Q12.62 6.88 13.87 7.13Q15.12 7.37 16.07 7.87L16.07 7.87Q17.78 8.74 18.70 10.39Q19.61 12.05 19.61 13.95L19.61 13.95ZM16.68 14.44Q16.68 11.74 15.01 10.07Q13.34 8.40 10.56 8.40L10.56 8.40L7.60 8.40L7.60 19.76Q9.23 20.06 11.02 20.06L11.02 20.06Q13.68 20.06 15.18 18.52Q16.68 16.99 16.68 14.44L16.68 14.44ZM31.69 19.87Q33.44 19.87 34.73 19.06Q36.02 18.24 36.69 16.93Q37.35 15.62 37.35 14.17L37.35 14.17Q37.35 12.69 36.73 11.38Q36.10 10.07 34.81 9.23Q33.52 8.40 31.65 8.40L31.65 8.40L28.42 8.40L28.42 29.53Q28.42 31.05 28.80 31.82Q29.18 32.60 29.64 32.85Q30.10 33.10 30.10 33.02L30.10 33.02L24.05 33.02Q24.05 33.10 24.51 32.83Q24.97 32.57 25.33 31.81Q25.69 31.05 25.69 29.53L25.69 29.53L25.69 10.53Q25.69 8.97 25.33 8.15Q24.97 7.33 24.51 7.05Q24.05 6.76 24.05 6.88L24.05 6.88L31.58 6.88Q34.54 6.88 36.46 7.85Q38.38 8.82 39.23 10.36Q40.09 11.89 40.09 13.72L40.09 13.72Q40.09 15.24 39.37 16.70Q38.65 18.16 37.30 19.25Q35.95 20.33 34.16 20.75L34.16 20.75L33.55 20.86L40.24 29.37Q41.57 30.86 42.45 31.65Q43.32 32.45 43.72 32.72Q44.12 32.98 44.19 33.02L44.19 33.02L39.75 33.02L29.41 19.87L31.69 19.87ZM47.58 33.02Q47.58 33.14 48.03 32.85Q48.49 32.57 48.87 31.79Q49.25 31.01 49.25 29.49L49.25 29.49L49.25 10.41Q49.25 8.89 48.89 8.11Q48.53 7.33 48.07 7.07Q47.61 6.80 47.61 6.88L47.61 6.88L53.66 6.88Q53.66 6.80 53.20 7.07Q52.74 7.33 52.36 8.11Q51.98 8.89 51.98 10.41L51.98 10.41L51.98 29.49Q51.98 31.01 52.36 31.79Q52.74 32.57 53.20 32.83Q53.66 33.10 53.66 33.02L53.66 33.02L47.58 33.02ZM87.36 33.02L81.47 33.02Q81.93 32.95 82.46 32.20Q82.99 31.46 82.99 29.45L82.99 29.45L82.99 10.45L73.04 33.44L62.93 10.49L62.93 29.26Q62.93 31.31 63.59 32.13Q64.26 32.95 64.79 33.02L64.79 33.02L59.17 33.02Q59.74 32.95 60.42 32.17Q61.10 31.39 61.10 29.26L61.10 29.26L61.10 10.22Q61.10 8.40 60.46 7.71Q59.81 7.03 59.17 6.88L59.17 6.88L64.30 6.88L73.61 28.12L82.76 6.88L87.36 6.88Q86.87 6.95 86.30 7.68Q85.73 8.40 85.73 10.34L85.73 10.34L85.73 29.60Q85.73 31.50 86.30 32.22Q86.87 32.95 87.36 33.02L87.36 33.02ZM107.54 33.02L93.21 33.02Q93.21 33.14 93.67 32.85Q94.13 32.57 94.49 31.71Q94.85 30.86 94.85 29.22L94.85 29.22L94.85 10.56Q94.85 9.01 94.49 8.19Q94.13 7.37 93.67 7.07Q93.21 6.76 93.21 6.88L93.21 6.88L106.97 6.88L106.97 10.68Q106.29 8.40 102.87 8.40L102.87 8.40L97.58 8.40L97.58 19.19L104.12 19.19Q104.88 19.19 105.41 18.94Q105.94 18.70 106.21 18.43Q106.48 18.16 106.51 18.09L106.51 18.09L106.51 21.77Q106.48 21.70 106.21 21.43Q105.94 21.17 105.43 20.94Q104.92 20.71 104.16 20.71L104.16 20.71L97.58 20.71L97.58 31.50L103.51 31.50Q105.22 31.50 106.46 30.80Q107.69 30.10 108.22 28.99L108.22 28.99L107.54 33.02Z" transform="translate(0, 0)"></path></g></svg></svg>
                </g>
            </svg>
        